<svg width="135" height="29" viewBox="0 0 135 29" fill="none" xmlns="http://www.w3.org/2000/svg">
<path fill-rule="evenodd" clip-rule="evenodd" d="M12.6113 15.0805L15.3729 17.4184C16.1707 16.9294 17.9964 15.0805 18.5947 11.9174C18.7731 10.9743 18.6345 9.1437 18.4567 8.4793C18.2725 7.79168 18.0884 5.08703 20.9881 4.58278C22.0007 4.44525 23.9338 4.81198 24.4401 7.10405C24.5819 7.74583 24.4861 9.57949 22.7371 10.4046C21.8166 10.7714 20.712 10.7255 20.3437 10.4963C20.3437 10.5174 20.3443 10.5475 20.345 10.5859V10.586C20.3532 11.0495 20.3829 12.7103 19.7454 13.9803C20.3437 14.1636 22.0928 14.3928 23.8418 13.7052L23.873 13.6897C24.9408 13.1586 29.2104 11.0352 27.5699 5.36208C27.2938 4.12436 25.3736 1.09548 21.4484 1.05299C17.2139 1.00715 15.2348 4.67446 15.0047 6.14138C14.5628 5.77465 11.7828 3.42146 10.448 2.29071C9.819 1.75589 8.00862 0.759603 5.79935 1.05299C3.59007 1.32804 0.230133 3.29922 0 7.51663C0 9.76285 1.05861 11.6073 2.16325 12.5133C2.9457 13.1551 4.3265 12.9718 4.87882 11.9632C5.24703 11.1381 5.09299 10.5668 4.69471 10.0379C4.5837 9.89048 4.45285 9.7694 4.319 9.64554C3.9534 9.30722 3.5654 8.94817 3.49802 7.97504C3.49802 7.9157 3.49695 7.8529 3.49583 7.78708L3.49583 7.78705C3.48226 6.98864 3.46115 5.74717 5.24703 4.85783C5.79935 4.53694 7.54836 4.26189 8.79107 5.40792C9.78525 6.32475 13.4551 9.44197 15.1888 10.9089C15.1581 11.7493 14.6364 13.7969 12.6113 15.0805ZM12.9795 22.4151L17.352 26.1282C17.9504 26.7242 20.8224 28.1361 23.8418 26.9992C25.3606 26.3574 27.2938 24.9364 27.9381 21.7733C28.1222 20.7648 28.0302 18.0143 25.7288 15.9973C25.2226 15.6306 24.3481 15.4014 23.3815 16.1348C23.0593 16.364 22.507 17.3725 23.2434 18.4269C23.351 18.5697 23.4647 18.6786 23.5799 18.7887C23.9082 19.1028 24.2476 19.4275 24.4861 20.5814C24.4861 21.7733 24.256 23.1486 22.1848 23.882C21.4024 24.1112 20.2057 23.9737 19.2851 23.1944C18.5487 22.4976 12.9641 17.7393 10.2639 15.4472C9.18997 14.7901 6.45292 13.7511 4.09636 14.8513C2.99173 15.218 0.0920531 17.0516 0 20.719C0 22.736 0.828478 25.1197 3.35994 26.6325C4.46458 27.1826 6.71988 28.1453 9.80366 26.6325C9.89636 26.5679 9.9942 26.5028 10.096 26.435L10.0961 26.435C11.0055 25.8299 12.2345 25.0122 12.9795 22.4151ZM6.53578 24.0195C8.26432 24.0195 9.66558 22.6239 9.66558 20.9023C9.66558 19.1807 8.26432 17.7851 6.53578 17.7851C4.80723 17.7851 3.40597 19.1807 3.40597 20.9023C3.40597 22.6239 4.80723 24.0195 6.53578 24.0195Z" fill="#CC9A48"/>
<path d="M37.2383 23V21.0398L43.9883 12.5767V12.4659H37.4599V9.90909H47.7639V12.0142L41.3378 20.3324V20.4432H47.9855V23H37.2383ZM55.3058 23.2557C53.9933 23.2557 52.8598 22.983 51.9052 22.4375C50.9564 21.8864 50.2262 21.108 49.7149 20.1023C49.2035 19.0909 48.9478 17.9006 48.9478 16.5312C48.9478 15.1847 49.2035 14.0028 49.7149 12.9858C50.2319 11.9631 50.9535 11.1676 51.8797 10.5994C52.8058 10.0256 53.8939 9.73864 55.1439 9.73864C55.9507 9.73864 56.712 9.86932 57.428 10.1307C58.1495 10.3864 58.7859 10.7841 59.337 11.3239C59.8939 11.8636 60.3314 12.5511 60.6495 13.3864C60.9677 14.2159 61.1268 15.2045 61.1268 16.3523V17.2983H50.3967V15.2188H58.1694C58.1637 14.6278 58.0359 14.1023 57.7859 13.642C57.5359 13.1761 57.1865 12.8097 56.7376 12.5426C56.2944 12.2756 55.7774 12.142 55.1865 12.142C54.5558 12.142 54.0018 12.2955 53.5245 12.6023C53.0473 12.9034 52.6751 13.3011 52.4081 13.7955C52.1467 14.2841 52.0132 14.821 52.0075 15.4062V17.2216C52.0075 17.983 52.1467 18.6364 52.4251 19.1818C52.7035 19.7216 53.0927 20.1364 53.5927 20.4261C54.0927 20.7102 54.678 20.8523 55.3484 20.8523C55.7973 20.8523 56.2035 20.7898 56.5672 20.6648C56.9308 20.5341 57.2461 20.3438 57.5132 20.0938C57.7802 19.8438 57.9819 19.5341 58.1183 19.1648L60.999 19.4886C60.8172 20.25 60.4706 20.9148 59.9592 21.483C59.4535 22.0455 58.8058 22.483 58.016 22.7955C57.2262 23.1023 56.3228 23.2557 55.3058 23.2557ZM65.8221 15.3295V23H62.7369V9.90909H65.6858V12.1335H65.8392C66.1403 11.4006 66.6204 10.8182 67.2795 10.3864C67.9443 9.95455 68.7653 9.73864 69.7426 9.73864C70.646 9.73864 71.4329 9.93182 72.1034 10.3182C72.7795 10.7045 73.3022 11.2642 73.6716 11.9972C74.0466 12.7301 74.2312 13.6193 74.2255 14.6648V23H71.1403V15.142C71.1403 14.267 70.913 13.5824 70.4585 13.0881C70.0096 12.5937 69.3875 12.3466 68.592 12.3466C68.0522 12.3466 67.5721 12.4659 67.1517 12.7045C66.7369 12.9375 66.4102 13.2756 66.1716 13.7188C65.9386 14.1619 65.8221 14.6989 65.8221 15.3295ZM82.5324 23.2386C81.2653 23.2386 80.1403 23.0256 79.1574 22.5994C78.1801 22.1733 77.413 21.5909 76.8562 20.8523C76.3051 20.108 76.0324 19.2642 76.038 18.321C76.0324 17.5881 76.1914 16.9148 76.5153 16.3011C76.8392 15.6875 77.2767 15.1761 77.8278 14.767C78.3846 14.3523 79.0039 14.0881 79.6858 13.9744V13.8551C78.788 13.6562 78.0608 13.1989 77.5039 12.483C76.9528 11.7614 76.6801 10.929 76.6858 9.98579C76.6801 9.08807 76.9301 8.28693 77.4358 7.58239C77.9414 6.87784 78.6346 6.32386 79.5153 5.92045C80.396 5.51136 81.4017 5.30682 82.5324 5.30682C83.6517 5.30682 84.6488 5.51136 85.5238 5.92045C86.4045 6.32386 87.0977 6.87784 87.6034 7.58239C88.1147 8.28693 88.3704 9.08807 88.3704 9.98579C88.3704 10.929 88.0892 11.7614 87.5267 12.483C86.9699 13.1989 86.2511 13.6562 85.3704 13.8551V13.9744C86.0522 14.0881 86.6659 14.3523 87.2113 14.767C87.7625 15.1761 88.2 15.6875 88.5238 16.3011C88.8534 16.9148 89.0181 17.5881 89.0181 18.321C89.0181 19.2642 88.7397 20.108 88.1829 20.8523C87.6261 21.5909 86.8591 22.1733 85.8818 22.5994C84.9102 23.0256 83.7937 23.2386 82.5324 23.2386ZM82.5324 20.8011C83.1858 20.8011 83.7539 20.6903 84.2369 20.4688C84.7199 20.2415 85.0949 19.9233 85.3619 19.5142C85.6289 19.1051 85.7653 18.6335 85.771 18.0994C85.7653 17.5426 85.6204 17.0511 85.3363 16.625C85.0579 16.1932 84.6744 15.8551 84.1858 15.6108C83.7028 15.3665 83.1517 15.2443 82.5324 15.2443C81.9074 15.2443 81.3505 15.3665 80.8619 15.6108C80.3733 15.8551 79.9869 16.1932 79.7028 16.625C79.4244 17.0511 79.288 17.5426 79.2937 18.0994C79.288 18.6335 79.4187 19.1051 79.6858 19.5142C79.9528 19.9176 80.3278 20.233 80.8108 20.4602C81.2994 20.6875 81.8733 20.8011 82.5324 20.8011ZM82.5324 12.8494C83.0664 12.8494 83.538 12.7415 83.9471 12.5256C84.3619 12.3097 84.6886 12.0085 84.9272 11.6222C85.1659 11.2358 85.288 10.7898 85.2937 10.2841C85.288 9.78409 85.1687 9.34659 84.9358 8.97159C84.7028 8.59091 84.3789 8.2983 83.9642 8.09375C83.5494 7.88352 83.0721 7.77841 82.5324 7.77841C81.9812 7.77841 81.4954 7.88352 81.075 8.09375C80.6602 8.2983 80.3363 8.59091 80.1034 8.97159C79.8761 9.34659 79.7653 9.78409 79.771 10.2841C79.7653 10.7898 79.8789 11.2358 80.1119 11.6222C80.3505 12.0028 80.6772 12.304 81.092 12.5256C81.5125 12.7415 81.9926 12.8494 82.5324 12.8494ZM93.9393 5.54545V23H90.8541V5.54545H93.9393ZM99.8789 23.2642C99.0494 23.2642 98.3022 23.1165 97.6375 22.821C96.9784 22.5199 96.4556 22.0767 96.0693 21.4915C95.6886 20.9062 95.4983 20.1847 95.4983 19.3267C95.4983 18.5881 95.6346 17.9773 95.9074 17.4943C96.1801 17.0114 96.5522 16.625 97.0238 16.3352C97.4954 16.0455 98.0267 15.8267 98.6176 15.679C99.2142 15.5256 99.8306 15.4148 100.467 15.3466C101.234 15.267 101.856 15.196 102.333 15.1335C102.811 15.0653 103.157 14.9631 103.373 14.8267C103.595 14.6847 103.706 14.4659 103.706 14.1705V14.1193C103.706 13.4773 103.515 12.9801 103.135 12.6278C102.754 12.2756 102.206 12.0994 101.49 12.0994C100.734 12.0994 100.135 12.2642 99.6914 12.5938C99.2539 12.9233 98.9585 13.3125 98.8051 13.7614L95.9244 13.3523C96.1517 12.5568 96.5267 11.892 97.0494 11.358C97.5721 10.8182 98.2113 10.4148 98.967 10.1477C99.7227 9.875 100.558 9.73864 101.473 9.73864C102.103 9.73864 102.731 9.8125 103.356 9.96023C103.981 10.108 104.552 10.3523 105.069 10.6932C105.586 11.0284 106.001 11.4858 106.314 12.0653C106.632 12.6449 106.791 13.3693 106.791 14.2386V23H103.825V21.2017H103.723C103.535 21.5653 103.271 21.9062 102.93 22.2244C102.595 22.5369 102.172 22.7898 101.66 22.983C101.155 23.1705 100.561 23.2642 99.8789 23.2642ZM100.68 20.9972C101.299 20.9972 101.836 20.875 102.291 20.6307C102.745 20.3807 103.095 20.0511 103.339 19.642C103.589 19.233 103.714 18.7869 103.714 18.304V16.7614C103.618 16.8409 103.453 16.9148 103.22 16.983C102.993 17.0511 102.737 17.1108 102.453 17.1619C102.169 17.2131 101.887 17.2585 101.609 17.2983C101.331 17.3381 101.089 17.3722 100.885 17.4006C100.424 17.4631 100.012 17.5653 99.6488 17.7074C99.2852 17.8494 98.9983 18.0483 98.788 18.304C98.5778 18.554 98.4727 18.8778 98.4727 19.2756C98.4727 19.8438 98.6801 20.2727 99.0949 20.5625C99.5096 20.8523 100.038 20.9972 100.68 20.9972ZM109.03 23V5.54545H112.115V12.0739H112.243C112.402 11.7557 112.626 11.4176 112.916 11.0597C113.206 10.696 113.598 10.3864 114.092 10.1307C114.586 9.86932 115.217 9.73864 115.984 9.73864C116.995 9.73864 117.907 9.99716 118.72 10.5142C119.538 11.0256 120.186 11.7841 120.663 12.7898C121.146 13.7898 121.387 15.017 121.387 16.4716C121.387 17.9091 121.152 19.1307 120.68 20.1364C120.208 21.142 119.566 21.9091 118.754 22.4375C117.941 22.9659 117.021 23.2301 115.993 23.2301C115.243 23.2301 114.62 23.1051 114.126 22.8551C113.632 22.6051 113.234 22.304 112.933 21.9517C112.637 21.5937 112.407 21.2557 112.243 20.9375H112.064V23H109.03ZM112.055 16.4545C112.055 17.3011 112.174 18.0426 112.413 18.679C112.657 19.3153 113.007 19.8125 113.461 20.1705C113.922 20.5227 114.478 20.6989 115.132 20.6989C115.814 20.6989 116.385 20.517 116.845 20.1534C117.305 19.7841 117.652 19.2812 117.885 18.6449C118.123 18.0028 118.243 17.2727 118.243 16.4545C118.243 15.642 118.126 14.9205 117.893 14.2898C117.66 13.6591 117.314 13.1648 116.853 12.8068C116.393 12.4489 115.819 12.2699 115.132 12.2699C114.473 12.2699 113.913 12.4432 113.453 12.7898C112.993 13.1364 112.643 13.6222 112.405 14.2472C112.172 14.8722 112.055 15.608 112.055 16.4545ZM133.357 13.3693L130.544 13.6761C130.465 13.392 130.326 13.125 130.127 12.875C129.934 12.625 129.672 12.4233 129.343 12.2699C129.013 12.1165 128.61 12.0398 128.132 12.0398C127.49 12.0398 126.951 12.179 126.513 12.4574C126.081 12.7358 125.868 13.0966 125.874 13.5398C125.868 13.9205 126.007 14.2301 126.292 14.4688C126.581 14.7074 127.059 14.9034 127.723 15.0568L129.956 15.5341C131.195 15.8011 132.115 16.2244 132.718 16.804C133.326 17.3835 133.632 18.142 133.638 19.0795C133.632 19.9034 133.391 20.6307 132.914 21.2614C132.442 21.8864 131.786 22.375 130.945 22.7273C130.104 23.0795 129.138 23.2557 128.047 23.2557C126.445 23.2557 125.155 22.9205 124.178 22.25C123.201 21.5739 122.618 20.6335 122.431 19.429L125.439 19.1392C125.576 19.7301 125.865 20.1761 126.309 20.4773C126.752 20.7784 127.329 20.929 128.039 20.929C128.772 20.929 129.36 20.7784 129.803 20.4773C130.252 20.1761 130.476 19.804 130.476 19.3608C130.476 18.9858 130.331 18.6761 130.042 18.4318C129.757 18.1875 129.314 18 128.712 17.8693L126.479 17.4006C125.223 17.1392 124.294 16.6989 123.692 16.0795C123.09 15.4545 122.792 14.6648 122.797 13.7102C122.792 12.9034 123.01 12.2045 123.454 11.6136C123.902 11.017 124.525 10.5568 125.32 10.233C126.121 9.90341 127.044 9.73864 128.09 9.73864C129.624 9.73864 130.831 10.0653 131.712 10.7188C132.598 11.3722 133.147 12.2557 133.357 13.3693Z" fill="white"/>
</svg>
