<svg width="20" height="20" viewBox="0 0 20 20" fill="none" xmlns="http://www.w3.org/2000/svg">
<path d="M17.495 10.882H17.495V10.885L17.495 16.3L17.495 16.3023C17.4954 16.3813 17.4801 16.4596 17.4501 16.5327C17.4201 16.6058 17.376 16.6723 17.3202 16.7283C17.2645 16.7843 17.1982 16.8288 17.1252 16.8591C17.0523 16.8894 16.974 16.905 16.895 16.905H12.555C12.3945 16.905 12.2407 16.8413 12.1272 16.7278C12.0137 16.6144 11.95 16.4605 11.95 16.3V13.02C11.95 12.5015 11.744 12.0043 11.3774 11.6376C11.0108 11.271 10.5135 11.065 9.995 11.065C9.4765 11.065 8.97924 11.271 8.61261 11.6376C8.24597 12.0043 8.04 12.5015 8.04 13.02L8.03999 16.3L8.04 16.3023C8.04036 16.3813 8.02511 16.4596 7.99512 16.5327C7.96513 16.6058 7.92099 16.6723 7.86524 16.7283C7.80949 16.7843 7.74322 16.8288 7.67025 16.8591C7.59727 16.8894 7.51903 16.905 7.44001 16.905H3.10136C2.9417 16.9041 2.78889 16.84 2.67623 16.7269C2.56336 16.6135 2.5 16.46 2.5 16.3L2.5 10.885L2.5 10.8848C2.49985 10.5299 2.63998 10.1893 2.88986 9.93726C2.88991 9.93721 2.88996 9.93716 2.89001 9.9371L9.62363 3.15349C9.67284 3.10475 9.73112 3.06612 9.79518 3.03979C9.85963 3.0133 9.92868 2.99979 9.99837 3.00004L10.0029 3.00001C10.0699 2.99962 10.1363 3.01269 10.1981 3.03846C10.26 3.06423 10.316 3.10216 10.3629 3.15001L10.3629 3.15001L10.3653 3.15239L17.1053 9.9374L17.107 9.93911C17.2309 10.0627 17.3291 10.2097 17.3957 10.3716C17.4623 10.5334 17.4961 10.7069 17.495 10.882ZM17.995 10.885V16.3V10.885Z" stroke="#FF9F2D"/>
</svg>
