<svg width="20" height="20" viewBox="0 0 20 20" fill="none" xmlns="http://www.w3.org/2000/svg">
<mask id="path-1-inside-1_104_164" fill="white">
<path d="M9.86501 11.45C10.7993 11.449 11.7123 11.1711 12.4887 10.6513C13.2651 10.1315 13.8699 9.39318 14.2268 8.52972C14.5836 7.66625 14.6765 6.71637 14.4936 5.80014C14.3107 4.88391 13.8603 4.04246 13.1993 3.38216C12.5383 2.72185 11.6964 2.27234 10.78 2.09043C9.86354 1.90852 8.91376 2.00238 8.05067 2.36015C7.18758 2.71792 6.44994 3.32354 5.93097 4.10045C5.412 4.87736 5.13501 5.7907 5.13501 6.725C5.13633 7.97861 5.63525 9.18042 6.52216 10.0664C7.40906 10.9523 8.6114 11.45 9.86501 11.45ZM9.86501 2.73C10.6561 2.73 11.4295 2.9646 12.0873 3.40412C12.7451 3.84365 13.2578 4.46836 13.5605 5.19927C13.8633 5.93017 13.9425 6.73444 13.7881 7.51036C13.6338 8.28628 13.2528 8.99902 12.6934 9.55843C12.134 10.1178 11.4213 10.4988 10.6454 10.6531C9.86945 10.8075 9.06518 10.7283 8.33427 10.4255C7.60337 10.1228 6.97865 9.61008 6.53912 8.95228C6.0996 8.29448 5.86501 7.52112 5.86501 6.73C5.86501 5.66913 6.28643 4.65172 7.03658 3.90157C7.78672 3.15143 8.80414 2.73 9.86501 2.73Z"/>
</mask>
<path d="M9.86501 11.45C10.7993 11.449 11.7123 11.1711 12.4887 10.6513C13.2651 10.1315 13.8699 9.39318 14.2268 8.52972C14.5836 7.66625 14.6765 6.71637 14.4936 5.80014C14.3107 4.88391 13.8603 4.04246 13.1993 3.38216C12.5383 2.72185 11.6964 2.27234 10.78 2.09043C9.86354 1.90852 8.91376 2.00238 8.05067 2.36015C7.18758 2.71792 6.44994 3.32354 5.93097 4.10045C5.412 4.87736 5.13501 5.7907 5.13501 6.725C5.13633 7.97861 5.63525 9.18042 6.52216 10.0664C7.40906 10.9523 8.6114 11.45 9.86501 11.45ZM9.86501 2.73C10.6561 2.73 11.4295 2.9646 12.0873 3.40412C12.7451 3.84365 13.2578 4.46836 13.5605 5.19927C13.8633 5.93017 13.9425 6.73444 13.7881 7.51036C13.6338 8.28628 13.2528 8.99902 12.6934 9.55843C12.134 10.1178 11.4213 10.4988 10.6454 10.6531C9.86945 10.8075 9.06518 10.7283 8.33427 10.4255C7.60337 10.1228 6.97865 9.61008 6.53912 8.95228C6.0996 8.29448 5.86501 7.52112 5.86501 6.73C5.86501 5.66913 6.28643 4.65172 7.03658 3.90157C7.78672 3.15143 8.80414 2.73 9.86501 2.73Z" fill="#E92C2C"/>
<path d="M5.13501 6.725L4.13501 6.725L4.13501 6.72606L5.13501 6.725ZM9.86501 2.73V3.73V2.73ZM9.86606 12.45C10.9981 12.4488 12.1044 12.112 13.045 11.4822L11.9324 9.82031C11.3203 10.2301 10.6005 10.4492 9.86395 10.45L9.86606 12.45ZM13.045 11.4822C13.9857 10.8524 14.7186 9.95788 15.151 8.91167L13.3026 8.14777C13.0213 8.82848 12.5444 9.41052 11.9324 9.82031L13.045 11.4822ZM15.151 8.91167C15.5833 7.86545 15.6958 6.71454 15.4743 5.6044L13.513 5.99587C13.6571 6.7182 13.5839 7.46705 13.3026 8.14777L15.151 8.91167ZM15.4743 5.6044C15.2527 4.49425 14.7069 3.47472 13.906 2.67468L12.4926 4.08964C13.0137 4.6102 13.3688 5.27356 13.513 5.99587L15.4743 5.6044ZM13.906 2.67468C13.1051 1.87463 12.085 1.32997 10.9747 1.10956L10.5853 3.07129C11.3077 3.2147 11.9715 3.56908 12.4926 4.08964L13.906 2.67468ZM10.9747 1.10956C9.86429 0.889154 8.7135 1.00288 7.66775 1.43637L8.4336 3.28393C9.11403 3.00188 9.8628 2.92788 10.5853 3.07129L10.9747 1.10956ZM7.66775 1.43637C6.62199 1.86986 5.72823 2.60365 5.09943 3.54499L6.76251 4.65591C7.17165 4.04342 7.75318 3.56598 8.4336 3.28393L7.66775 1.43637ZM5.09943 3.54499C4.47062 4.48633 4.13501 5.59296 4.13501 6.725L6.13501 6.725C6.13501 5.98843 6.35338 5.2684 6.76251 4.65591L5.09943 3.54499ZM4.13501 6.72606C4.13662 8.2447 4.74101 9.70059 5.81542 10.7739L7.22889 9.3589C6.52949 8.66025 6.13605 7.71252 6.13501 6.72394L4.13501 6.72606ZM5.81542 10.7739C6.88983 11.8471 8.34637 12.45 9.86501 12.45L9.86501 10.45C8.87643 10.45 7.92829 10.0576 7.22889 9.3589L5.81542 10.7739ZM9.86501 3.73C10.4583 3.73 11.0384 3.90595 11.5317 4.23559L12.6429 2.57265C11.8206 2.02325 10.8539 1.73 9.86501 1.73V3.73ZM11.5317 4.23559C12.0251 4.56523 12.4096 5.03377 12.6366 5.58195L14.4844 4.81658C14.106 3.90295 13.4651 3.12206 12.6429 2.57265L11.5317 4.23559ZM12.6366 5.58195C12.8637 6.13013 12.9231 6.73333 12.8074 7.31527L14.7689 7.70545C14.9619 6.73554 14.8628 5.73021 14.4844 4.81658L12.6366 5.58195ZM12.8074 7.31527C12.6916 7.89721 12.4059 8.43176 11.9863 8.85132L13.4005 10.2655C14.0998 9.56627 14.576 8.67535 14.7689 7.70545L12.8074 7.31527ZM11.9863 8.85132C11.5668 9.27088 11.0322 9.5566 10.4503 9.67235L10.8405 11.6339C11.8104 11.441 12.7013 10.9648 13.4005 10.2655L11.9863 8.85132ZM10.4503 9.67235C9.86834 9.78811 9.26514 9.7287 8.71696 9.50164L7.95159 11.3494C8.86522 11.7278 9.87056 11.8269 10.8405 11.6339L10.4503 9.67235ZM8.71696 9.50164C8.16878 9.27457 7.70024 8.89005 7.37059 8.39671L5.70765 9.50785C6.25706 10.3301 7.03796 10.971 7.95159 11.3494L8.71696 9.50164ZM7.37059 8.39671C7.04095 7.90336 6.86501 7.32335 6.86501 6.73H4.86501C4.86501 7.7189 5.15825 8.6856 5.70765 9.50785L7.37059 8.39671ZM6.86501 6.73C6.86501 5.93435 7.18107 5.17129 7.74368 4.60868L6.32947 3.19447C5.39179 4.13215 4.86501 5.40392 4.86501 6.73H6.86501ZM7.74368 4.60868C8.30629 4.04607 9.06936 3.73 9.86501 3.73V1.73C8.53892 1.73 7.26715 2.25678 6.32947 3.19447L7.74368 4.60868Z" fill="#E92C2C" mask="url(#path-1-inside-1_104_164)"/>
<mask id="path-3-inside-2_104_164" fill="white">
<path d="M13.765 12.175H5.955C5.36996 12.175 4.79066 12.2902 4.25015 12.5141C3.70965 12.738 3.21853 13.0662 2.80484 13.4798C2.39116 13.8935 2.06301 14.3846 1.83913 14.9251C1.61524 15.4656 1.5 16.045 1.5 16.63V17.29C1.5 17.755 2.22501 17.725 2.22501 17.26V16.63C2.22501 15.6407 2.61798 14.692 3.31749 13.9925C4.017 13.293 4.96574 12.9 5.955 12.9H13.765C14.2553 12.8993 14.7408 12.9953 15.194 13.1825C15.6471 13.3696 16.0589 13.6443 16.4057 13.9907C16.7526 14.3371 17.0278 14.7486 17.2156 15.2014C17.4034 15.6543 17.5 16.1397 17.5 16.63V17.26C17.5 17.725 18.22 17.76 18.225 17.29V16.63C18.225 16.0445 18.1096 15.4648 17.8854 14.924C17.6612 14.3832 17.3326 13.8918 16.9184 13.4781C16.5042 13.0643 16.0125 12.7363 15.4714 12.5127C14.9303 12.2891 14.3505 12.1743 13.765 12.175Z"/>
</mask>
<path d="M13.765 12.175H5.955C5.36996 12.175 4.79066 12.2902 4.25015 12.5141C3.70965 12.738 3.21853 13.0662 2.80484 13.4798C2.39116 13.8935 2.06301 14.3846 1.83913 14.9251C1.61524 15.4656 1.5 16.045 1.5 16.63V17.29C1.5 17.755 2.22501 17.725 2.22501 17.26V16.63C2.22501 15.6407 2.61798 14.692 3.31749 13.9925C4.017 13.293 4.96574 12.9 5.955 12.9H13.765C14.2553 12.8993 14.7408 12.9953 15.194 13.1825C15.6471 13.3696 16.0589 13.6443 16.4057 13.9907C16.7526 14.3371 17.0278 14.7486 17.2156 15.2014C17.4034 15.6543 17.5 16.1397 17.5 16.63V17.26C17.5 17.725 18.22 17.76 18.225 17.29V16.63C18.225 16.0445 18.1096 15.4648 17.8854 14.924C17.6612 14.3832 17.3326 13.8918 16.9184 13.4781C16.5042 13.0643 16.0125 12.7363 15.4714 12.5127C14.9303 12.2891 14.3505 12.1743 13.765 12.175Z" fill="#E92C2C"/>
<path d="M5.955 12.175V13.175V12.175ZM5.955 12.9V11.9V12.9ZM13.765 12.9V13.9L13.7663 13.9L13.765 12.9ZM17.5 16.63L16.5 16.63V16.63H17.5ZM18.225 17.29L19.225 17.3006V17.29H18.225ZM18.225 16.63L17.225 16.63V16.63H18.225ZM13.765 11.175H5.955V13.175H13.765V11.175ZM5.955 11.175C5.23864 11.175 4.5293 11.3161 3.86747 11.5902L4.63284 13.438C5.05202 13.2644 5.50129 13.175 5.955 13.175V11.175ZM3.86747 11.5902C3.20564 11.8644 2.60428 12.2662 2.09773 12.7727L3.51195 14.1869C3.83277 13.8661 4.21365 13.6116 4.63284 13.438L3.86747 11.5902ZM2.09773 12.7727C1.59118 13.2793 1.18938 13.8806 0.915247 14.5425L2.76301 15.3078C2.93664 14.8886 3.19113 14.5078 3.51195 14.1869L2.09773 12.7727ZM0.915247 14.5425C0.641112 15.2043 0.5 15.9136 0.5 16.63H2.5C2.5 16.1763 2.58937 15.727 2.76301 15.3078L0.915247 14.5425ZM0.5 16.63V17.29H2.5V16.63H0.5ZM0.5 17.29C0.5 17.6924 0.669604 18.0682 0.982088 18.3225C1.27005 18.5568 1.61182 18.635 1.90384 18.6229C2.47675 18.5992 3.22501 18.162 3.22501 17.26H1.22501C1.22501 17.0923 1.30044 16.9105 1.44418 16.7817C1.56955 16.6693 1.70889 16.6292 1.82116 16.6246C1.93193 16.62 2.09246 16.6475 2.24448 16.7712C2.42102 16.9149 2.5 17.1201 2.5 17.29H0.5ZM3.22501 17.26V16.63H1.22501V17.26H3.22501ZM3.22501 16.63C3.22501 15.906 3.51263 15.2116 4.0246 14.6996L2.61038 13.2854C1.72333 14.1724 1.22501 15.3755 1.22501 16.63H3.22501ZM4.0246 14.6996C4.53657 14.1876 5.23096 13.9 5.955 13.9V11.9C4.70053 11.9 3.49743 12.3983 2.61038 13.2854L4.0246 14.6996ZM5.955 13.9H13.765V11.9H5.955V13.9ZM13.7663 13.9C14.1252 13.8995 14.4806 13.9698 14.8122 14.1068L15.5757 12.2582C15.0011 12.0209 14.3853 11.8992 13.7637 11.9L13.7663 13.9ZM14.8122 14.1068C15.1438 14.2437 15.4452 14.4447 15.6991 14.6983L17.1124 13.2831C16.6725 12.8438 16.1503 12.4956 15.5757 12.2582L14.8122 14.1068ZM15.6991 14.6983C15.953 14.9518 16.1544 15.253 16.2918 15.5844L18.1393 14.8184C17.9012 14.2442 17.5523 13.7225 17.1124 13.2831L15.6991 14.6983ZM16.2918 15.5844C16.4293 15.9159 16.5 16.2712 16.5 16.63L18.5 16.63C18.5 16.0083 18.3774 15.3927 18.1393 14.8184L16.2918 15.5844ZM16.5 16.63V17.26H18.5V16.63H16.5ZM16.5 17.26C16.5 18.1532 17.2362 18.5985 17.8157 18.6246C18.11 18.6379 18.4528 18.5592 18.7411 18.3244C19.0525 18.0707 19.2207 17.698 19.2249 17.3006L17.2251 17.2794C17.2268 17.117 17.3031 16.9162 17.4781 16.7736C17.63 16.6499 17.7918 16.6215 17.9056 16.6266C18.0205 16.6318 18.1603 16.6736 18.2846 16.7864C18.4265 16.9152 18.5 17.095 18.5 17.26H16.5ZM19.225 17.29V16.63H17.225V17.29H19.225ZM19.225 16.63C19.225 15.9131 19.0837 15.2033 18.8092 14.541L16.9616 15.3069C17.1355 15.7264 17.225 16.176 17.225 16.63L19.225 16.63ZM18.8092 14.541C18.5347 13.8788 18.1323 13.2772 17.6251 12.7706L16.2117 14.1856C16.5329 14.5064 16.7878 14.8875 16.9616 15.3069L18.8092 14.541ZM17.6251 12.7706C17.1179 12.2639 16.5158 11.8623 15.8533 11.5885L15.0895 13.4369C15.5091 13.6103 15.8905 13.8647 16.2117 14.1856L17.6251 12.7706ZM15.8533 11.5885C15.1908 11.3147 14.4808 11.1742 13.7639 11.175L13.7661 13.175C14.2202 13.1745 14.6699 13.2635 15.0895 13.4369L15.8533 11.5885Z" fill="#E92C2C" mask="url(#path-3-inside-2_104_164)"/>
</svg>
